<svg width="240" height="180" viewBox="0 0 240 180" xmlns="http://www.w3.org/2000/svg">
  <defs>
    <linearGradient id="astro" x1="0" y1="0" x2="1" y2="1">
      <stop offset="0%" stop-color="#93c5fd"/>
      <stop offset="100%" stop-color="#7c3aed"/>
    </linearGradient>
    <linearGradient id="gold" x1="0" y1="0" x2="1" y2="1">
      <stop offset="0%" stop-color="#fde68a"/>
      <stop offset="100%" stop-color="#f59e0b"/>
    </linearGradient>
  </defs>
  <rect x="18" y="22" width="204" height="136" rx="28" fill="#f8f7ff"/>
  <circle cx="120" cy="84" r="48" fill="none" stroke="url(#astro)" stroke-width="12"/>
  <circle cx="120" cy="84" r="18" fill="url(#gold)"/>
  <g fill="url(#astro)">
    <circle cx="120" cy="36" r="6"/>
    <circle cx="156" cy="50" r="6"/>
    <circle cx="170" cy="86" r="6"/>
    <circle cx="156" cy="122" r="6"/>
    <circle cx="120" cy="136" r="6"/>
    <circle cx="84" cy="122" r="6"/>
    <circle cx="70" cy="86" r="6"/>
    <circle cx="84" cy="50" r="6"/>
  </g>
  <path d="M120 54l4 10 10 2-7 7 2 10-9-5-9 5 2-10-7-7 10-2z" fill="#fbbf24"/>
  <path d="M121 78v12" stroke="#4c1d95" stroke-width="4" stroke-linecap="round"/>
</svg>
