<svg width="240" height="180" viewBox="0 0 240 180" xmlns="http://www.w3.org/2000/svg">
  <rect x="18" y="22" width="204" height="136" rx="28" fill="#f5fff8"/>
  <circle cx="86" cy="70" r="16" fill="#34d399"/>
  <rect x="80" y="86" width="12" height="34" rx="6" fill="#10b981"/>
  <rect x="62" y="94" width="48" height="10" rx="5" fill="#10b981"/>
  <rect x="70" y="118" width="12" height="20" rx="6" fill="#059669"/>
  <rect x="90" y="118" width="12" height="20" rx="6" fill="#059669"/>
  <circle cx="156" cy="72" r="16" fill="#22c55e"/>
  <rect x="150" y="88" width="12" height="34" rx="6" fill="#16a34a"/>
  <rect x="132" y="96" width="48" height="10" rx="5" fill="#16a34a"/>
  <rect x="140" y="120" width="12" height="20" rx="6" fill="#15803d"/>
  <rect x="160" y="120" width="12" height="20" rx="6" fill="#15803d"/>
  <rect x="102" y="60" width="36" height="10" rx="5" fill="#4ade80"/>
  <rect x="108" y="54" width="8" height="22" rx="4" fill="#4ade80"/>
</svg>
