<svg width="240" height="180" viewBox="0 0 240 180" xmlns="http://www.w3.org/2000/svg">
  <defs>
    <linearGradient id="g1" x1="0" y1="0" x2="1" y2="1">
      <stop offset="0%" stop-color="#ffd1dc"/>
      <stop offset="100%" stop-color="#ff7a9e"/>
    </linearGradient>
    <linearGradient id="g2" x1="0" y1="0" x2="1" y2="1">
      <stop offset="0%" stop-color="#ffe5a3"/>
      <stop offset="100%" stop-color="#f7b84b"/>
    </linearGradient>
  </defs>
  <rect x="18" y="22" width="204" height="136" rx="28" fill="#fff7fb"/>
  <circle cx="88" cy="76" r="26" fill="#ffcfbf"/>
  <circle cx="152" cy="76" r="26" fill="#ffdca8"/>
  <path d="M58 124c6-20 23-32 30-32h0c7 0 24 12 30 32" fill="url(#g1)"/>
  <path d="M122 124c6-20 23-32 30-32h0c7 0 24 12 30 32" fill="url(#g2)"/>
  <path d="M78 73c4-11 15-18 28-18s24 7 28 18" fill="none" stroke="#7c2d12" stroke-width="6" stroke-linecap="round"/>
  <path d="M132 73c4-11 15-18 28-18s24 7 28 18" fill="none" stroke="#7c2d12" stroke-width="6" stroke-linecap="round"/>
  <circle cx="80" cy="74" r="4" fill="#7c2d12"/>
  <circle cx="160" cy="74" r="4" fill="#7c2d12"/>
  <path d="M113 104c4-9 13-14 27-14s23 5 27 14" fill="none" stroke="#ff8aa5" stroke-width="5" stroke-linecap="round"/>
  <path d="M108 46l6 12 13 2-10 9 2 13-11-6-11 6 2-13-10-9 13-2z" fill="#ff5f8f"/>
</svg>
