<svg width="240" height="180" viewBox="0 0 240 180" xmlns="http://www.w3.org/2000/svg">
  <defs>
    <linearGradient id="roof" x1="0" y1="0" x2="1" y2="1">
      <stop offset="0%" stop-color="#ffb36b"/>
      <stop offset="100%" stop-color="#e85d04"/>
    </linearGradient>
    <linearGradient id="grass" x1="0" y1="0" x2="1" y2="0">
      <stop offset="0%" stop-color="#a7e55e"/>
      <stop offset="100%" stop-color="#6cbf3f"/>
    </linearGradient>
  </defs>
  <rect x="18" y="22" width="204" height="136" rx="28" fill="#f6fff1"/>
  <rect x="38" y="90" width="164" height="36" rx="8" fill="url(#grass)" opacity="0.35"/>
  <polygon points="120,36 58,80 182,80" fill="url(#roof)"/>
  <rect x="70" y="80" width="100" height="58" rx="8" fill="#f4d35e"/>
  <rect x="106" y="96" width="28" height="42" rx="4" fill="#9c6644"/>
  <rect x="82" y="92" width="20" height="18" rx="3" fill="#ffffff" opacity="0.9"/>
  <rect x="138" y="92" width="20" height="18" rx="3" fill="#ffffff" opacity="0.9"/>
  <circle cx="184" cy="58" r="16" fill="#92d36e"/>
  <circle cx="190" cy="48" r="10" fill="#8bc34a"/>
  <path d="M40 132h28" stroke="#5a7d1a" stroke-width="6" stroke-linecap="round"/>
  <rect x="52" y="60" width="10" height="24" rx="3" fill="#8d5a32"/>
</svg>
